<svg width="68" height="68" viewBox="0 0 68 68" fill="none" xmlns="http://www.w3.org/2000/svg">
<path d="M9.06179 35.4904L37.3244 19.4749C39.6796 18.0618 43.448 18.0618 45.5677 19.4749L59.2279 27.2471C61.5831 28.6602 61.5831 30.7799 59.2279 32.193L30.9653 48.2085C28.6101 49.6217 24.8417 49.6217 22.722 48.2085L9.06179 40.4363C6.70658 39.0232 6.70658 36.9035 9.06179 35.4904Z" stroke="#FFCD00" stroke-width="2" stroke-miterlimit="10"/>
<path d="M29.3167 34.5483C29.3167 34.5483 29.0811 34.5483 28.8456 34.5483C27.197 34.5483 26.0193 33.3707 26.0193 31.722C26.0193 30.0734 27.4325 28.8958 29.0811 28.8958C30.7298 28.8958 32.1429 30.0734 32.1429 31.722C32.1429 32.4286 31.9074 33.1351 31.4363 33.8417L29.0811 37.3745H27.197L29.3167 34.5483ZM30.7298 31.9575C30.7298 31.251 30.0232 30.5444 29.3167 30.5444C28.3746 30.5444 27.9035 31.0155 27.9035 31.9575C27.9035 32.6641 28.6101 33.3706 29.3167 33.3706C30.0232 33.3706 30.7298 32.6641 30.7298 31.9575Z" fill="#FFCD00"/>
<path d="M35.9113 32.6641H39.9151V29.3668H41.5638V37.6101H39.9151V34.0773H35.9113V37.3745H34.2626V29.3668H35.9113V32.6641Z" fill="#FFCD00"/>
<path d="M54.9885 15V19.2394C54.9885 19.7104 55.4596 20.1815 55.9306 20.1815H63.5" stroke="#FFCD00" stroke-width="2" stroke-miterlimit="10"/>
<path d="M14.2433 52.1815V47.9421C14.2433 47.471 13.7722 47 13.3012 47H4" stroke="#FFCD00" stroke-width="2" stroke-miterlimit="10"/>
<path d="M47.6873 48.4441V44.2047C47.6873 43.7336 48.1584 43.2626 48.6294 43.2626H55.9306" stroke="#FFCD00" stroke-width="2" stroke-miterlimit="10"/>
<path d="M22.722 18.0619V22.3013C22.722 22.7723 22.251 23.2434 21.7799 23.2434H14.2433" stroke="#FFCD00" stroke-width="2" stroke-miterlimit="10"/>
<path d="M34 68C15.3 68 0 52.7 0 34C0 24.9333 3.54167 16.4333 9.91667 9.91667C16.2917 3.54167 24.9333 0 34 0C43.0667 0 51.5667 3.54167 58.0833 9.91667C64.6 16.2917 68 24.9333 68 34C68 43.0667 64.4583 51.5667 58.0833 58.0833C51.5667 64.4583 43.0667 68 34 68ZM34 1.98333C25.5 1.98333 17.425 5.24167 11.3333 11.3333C5.24167 17.425 1.98333 25.5 1.98333 34C1.98333 51.7083 16.2917 66.0167 34 66.0167C42.5 66.0167 50.575 62.6167 56.6667 56.6667C62.7583 50.7167 66.0167 42.6417 66.0167 34C66.0167 25.5 62.6167 17.425 56.6667 11.3333C50.7167 5.24167 42.5 1.98333 34 1.98333Z" fill="#FFCE00"/>
</svg>
