<svg width="68" height="68" viewBox="0 0 68 68" fill="none" xmlns="http://www.w3.org/2000/svg">
<path d="M34 68C15.3 68 0 52.7 0 34C0 24.9333 3.54167 16.4333 9.91667 9.91667C16.2917 3.54167 24.9333 0 34 0C43.0667 0 51.5667 3.54167 58.0833 9.91667C64.6 16.2917 68 24.9333 68 34C68 43.0667 64.4583 51.5667 58.0833 58.0833C51.5667 64.4583 43.0667 68 34 68ZM34 1.98333C25.5 1.98333 17.425 5.24167 11.3333 11.3333C5.24167 17.425 1.98333 25.5 1.98333 34C1.98333 51.7083 16.2917 66.0167 34 66.0167C42.5 66.0167 50.575 62.6167 56.6667 56.6667C62.7583 50.7167 66.0167 42.6417 66.0167 34C66.0167 25.5 62.6167 17.425 56.6667 11.3333C50.7167 5.24167 42.5 1.98333 34 1.98333Z" fill="#FFCE00"/>
<path fill-rule="evenodd" clip-rule="evenodd" d="M42.058 39.7418L28.8456 47.5491V45.0543L40.2129 38.6963L42.058 39.7418ZM30.8925 50.3381L29.7405 49.7046L42.9769 41.8831V43.3072L30.8925 50.3381ZM34.3886 52.261L42.9769 56.9845V47.2642L34.3886 52.261ZM28.8456 42.9359V40.1441L35.9845 36.3001L38.3316 37.6301L28.8456 42.9359ZM34.5595 35.4927L28.8456 38.5694V35.6238L31.6957 33.8698L34.5595 35.4927ZM28.8456 34.5383L30.7775 33.3495L28.8456 32.2548V34.5383Z" fill="#FFCD00"/>
<path fill-rule="evenodd" clip-rule="evenodd" d="M46.159 23.2456L61.71 32.1829C61.7494 32.2139 61.7834 32.2428 61.8127 32.2693L61.7965 32.2774L61.7707 32.2922L29.7398 50.6629L29.7093 50.6804L29.6801 50.6999C29.5631 50.7779 29.2646 50.8779 28.8162 50.8779C28.3976 50.8779 27.9854 50.7895 27.6872 50.6464L7.22633 38.8873L7.20011 38.8722L7.17305 38.8587L7.15536 38.8496L7.17305 38.8405L7.19969 38.8272L7.22552 38.8124L27.4325 27.2231V24.8181L6.21048 36.9895C5.51625 37.3468 4.95686 37.9979 4.95686 38.8496C4.95686 39.7011 5.516 40.3521 6.21002 40.7094L26.6772 52.4722L26.7034 52.4873L26.7304 52.5008C27.3727 52.8219 28.1272 52.9642 28.8162 52.9642C29.4738 52.9642 30.2192 52.8338 30.8039 52.4576L62.7852 34.1154C63.3861 33.8076 64.0394 33.2419 64.0394 32.3433C64.0394 31.5111 63.4606 30.8872 62.9155 30.4784L62.8646 30.4402L62.8094 30.4085L43.2752 19.1819L46.159 23.2456ZM38.3106 18.5754C38.2705 18.5982 38.231 18.6221 38.1923 18.647L36.8533 19.4149V21.82L39.2565 20.4417L39.2869 20.4242L39.3161 20.4048C39.3628 20.3737 39.4383 20.339 39.5406 20.3087L38.3106 18.5754Z" fill="#FFCD00"/>
<path d="M42.9769 38.8496L28.8456 30.8418V17.4171L42.9769 25.1893V38.8496Z" fill="#FFCD00"/>
<path d="M25.3128 16.0039L46.5097 28.251C46.9808 28.4865 47.2163 28.0155 46.7452 27.5444L35.9112 12L25.0772 14.8263C24.6062 15.0618 24.8417 15.7684 25.3128 16.0039Z" fill="#FFCD00"/>
</svg>
