<svg width="68" height="68" viewBox="0 0 68 68" fill="none" xmlns="http://www.w3.org/2000/svg">
<path d="M34 68C15.3 68 0 52.7 0 34C0 24.9333 3.54167 16.4333 9.91667 9.91667C16.2917 3.54167 24.9333 0 34 0C43.0667 0 51.5667 3.54167 58.0833 9.91667C64.6 16.2917 68 24.9333 68 34C68 43.0667 64.4583 51.5667 58.0833 58.0833C51.5667 64.4583 43.0667 68 34 68ZM34 1.98333C25.5 1.98333 17.425 5.24167 11.3333 11.3333C5.24167 17.425 1.98333 25.5 1.98333 34C1.98333 51.7083 16.2917 66.0167 34 66.0167C42.5 66.0167 50.575 62.6167 56.6667 56.6667C62.7583 50.7167 66.0167 42.6417 66.0167 34C66.0167 25.5 62.6167 17.425 56.6667 11.3333C50.7167 5.24167 42.5 1.98333 34 1.98333Z" fill="#FFCE00"/>
<path fill-rule="evenodd" clip-rule="evenodd" d="M11 34.0811C11 39.7336 15.7104 44.4441 21.5985 44.4441C27.0155 44.4441 30.3128 39.2626 31.9614 33.6101C34.0811 26.78 38.556 19.4788 46.5638 19.4788C48.919 19.4788 51.0387 19.9498 52.9229 20.8919C48.6835 15.0039 41.8533 11 34.0811 11C21.363 11.2355 11 21.3629 11 34.0811ZM34.3167 16.6224C25.0025 16.6224 17.499 23.4885 16.6167 32.3112L14.3332 32.0829C15.3351 22.0638 23.847 14.3275 34.3167 14.3275V16.6224ZM16.888 35.2588C16.888 36.1693 16.1499 36.9074 15.2394 36.9074C14.3289 36.9074 13.5907 36.1693 13.5907 35.2588C13.5907 34.3482 14.3289 33.6101 15.2394 33.6101C16.1499 33.6101 16.888 34.3482 16.888 35.2588Z" fill="#FFCD00"/>
<path fill-rule="evenodd" clip-rule="evenodd" d="M57.1623 34.0812C57.1623 28.4287 52.4518 23.7183 46.5638 23.7183C41.1468 23.7183 37.8495 28.8998 36.2008 34.5523C34.0811 41.3824 29.6062 48.6836 21.5985 48.6836C19.2433 48.6836 17.1236 48.2125 15.2394 47.2704C19.4788 53.1585 26.3089 57.1623 34.0811 57.1623C46.7993 57.1623 57.1623 46.7994 57.1623 34.0812ZM34.0811 51.7752C43.3953 51.7752 50.8988 44.9092 51.7811 36.0865L54.0646 36.3149C53.0627 46.3339 44.5508 54.0702 34.0811 54.0702V51.7752ZM51.9808 31.9616C51.2742 32.4326 51.2742 33.3747 51.9808 34.0812C52.4518 34.7878 53.3939 34.7878 54.1005 34.0812C54.807 33.6102 54.807 32.6681 54.1005 31.9616C53.6294 31.255 52.6873 31.255 51.9808 31.9616Z" fill="#FFCD00"/>
</svg>
