<svg width="68" height="68" viewBox="0 0 68 68" fill="none" xmlns="http://www.w3.org/2000/svg">
<mask id="mask0" mask-type="alpha" maskUnits="userSpaceOnUse" x="0" y="0" width="68" height="68">
<circle cx="34" cy="34" r="34" fill="#C4C4C4"/>
</mask>
<g mask="url(#mask0)">
<path fill-rule="evenodd" clip-rule="evenodd" d="M28.7724 33.1197C28.1714 33.7695 27.6381 34.3866 27.1983 34.9521L20.5347 43.5201L23.7985 46.1041L30.4621 37.5361C30.8187 37.0855 31.2453 36.5936 31.7254 36.0727L28.7724 33.1197ZM33.1411 34.6036L30.188 31.6504C33.4562 28.3755 37.8322 24.6709 40.5255 22.5761L52.4927 14.0081L54.9406 17.4081L42.9733 25.9761C40.2649 28.0827 36.1506 31.5954 33.1411 34.6036Z" fill="#FFCE00"/>
<path fill-rule="evenodd" clip-rule="evenodd" d="M38.2937 42.641C37.4161 43.6724 36.5726 44.737 35.7658 45.8321L39.0296 48.2801C39.7262 47.3423 40.4492 46.4309 41.1986 45.5459L38.2937 42.641ZM42.5487 44.0112L39.6454 41.1079C42.5753 37.9007 45.8439 35.0494 49.3649 32.6401L54.2606 29.2401L56.5725 32.6401L51.6768 36.0401C48.3131 38.3761 45.2704 41.0332 42.5487 44.0112Z" fill="#FFCE00"/>
<path fill-rule="evenodd" clip-rule="evenodd" d="M19.1183 23.4655C18.2409 24.4968 17.3976 25.5611 16.591 26.656L19.8548 29.104C20.5512 28.1664 21.274 27.2552 22.0232 26.3704L19.1183 23.4655ZM23.3733 24.8357L20.47 21.9324C23.4001 18.7249 26.6688 15.8734 30.1901 13.464L35.0858 10.064L37.3977 13.464L32.502 16.864C29.1381 19.2002 26.0952 21.8574 23.3733 24.8357Z" fill="#FFCE00"/>
<path d="M32.0939 56.372C33.0328 56.372 33.7939 55.6109 33.7939 54.672C33.7939 53.7332 33.0328 52.972 32.0939 52.972C31.1551 52.972 30.3939 53.7332 30.3939 54.672C30.3939 55.6109 31.1551 56.372 32.0939 56.372Z" fill="#FFCE00"/>
<path d="M35.0858 51.884C36.0247 51.884 36.7858 51.1229 36.7858 50.184C36.7858 49.2451 36.0247 48.484 35.0858 48.484C34.1469 48.484 33.3858 49.2451 33.3858 50.184C33.3858 51.1229 34.1469 51.884 35.0858 51.884Z" fill="#FFCE00"/>
<path d="M12.9191 37.196C13.858 37.196 14.6191 36.4349 14.6191 35.496C14.6191 34.5571 13.858 33.796 12.9191 33.796C11.9803 33.796 11.2191 34.5571 11.2191 35.496C11.2191 36.4349 11.9803 37.196 12.9191 37.196Z" fill="#FFCE00"/>
<path d="M15.9109 32.708C16.8498 32.708 17.6109 31.9469 17.6109 31.008C17.6109 30.0691 16.8498 29.308 15.9109 29.308C14.9721 29.308 14.2109 30.0691 14.2109 31.008C14.2109 31.9469 14.9721 32.708 15.9109 32.708Z" fill="#FFCE00"/>
<path d="M17.964 52.6044C18.0321 51.668 17.3282 50.8536 16.3918 50.7855C15.4554 50.7174 14.6411 51.4213 14.573 52.3577C14.5048 53.2941 15.2087 54.1084 16.1452 54.1766C17.0816 54.2447 17.8959 53.5408 17.964 52.6044Z" fill="#FFCE00"/>
<path d="M21.358 48.2234C21.4262 47.287 20.7223 46.4726 19.7859 46.4045C18.8494 46.3364 18.0351 47.0403 17.967 47.9767C17.8989 48.9131 18.6028 49.7275 19.5392 49.7956C20.4756 49.8637 21.2899 49.1598 21.358 48.2234Z" fill="#FFCE00"/>
<path d="M5.77268 4.4569L4.33028 5.89929L62.0296 63.5987L63.472 62.1563L5.77268 4.4569Z" fill="#FFCE00"/>
</g>
<path d="M33.9979 68C15.2311 68 0 52.768 0 34C0 15.232 15.2311 0 33.9979 0C52.7648 0 67.9959 15.232 67.9959 34C67.9959 52.768 52.7648 68 33.9979 68ZM33.9979 2.04C16.455 2.04 2.03988 16.456 2.03988 34C2.03988 51.544 16.319 65.96 33.9979 65.96C51.6769 65.96 65.956 51.544 65.956 34C65.956 16.456 51.5409 2.04 33.9979 2.04Z" fill="#FFCE00"/>
</svg>
