<svg width="68" height="68" viewBox="0 0 68 68" fill="none" xmlns="http://www.w3.org/2000/svg">
<path d="M34 68C15.3 68 0 52.7 0 34C0 24.9333 3.54167 16.4333 9.91667 9.91667C16.2917 3.54167 24.9333 0 34 0C43.0667 0 51.5667 3.54167 58.0833 9.91667C64.6 16.2917 68 24.9333 68 34C68 43.0667 64.4583 51.5667 58.0833 58.0833C51.5667 64.4583 43.0667 68 34 68ZM34 1.98333C25.5 1.98333 17.425 5.24167 11.3333 11.3333C5.24167 17.425 1.98333 25.5 1.98333 34C1.98333 51.7083 16.2917 66.0167 34 66.0167C42.5 66.0167 50.575 62.6167 56.6667 56.6667C62.7583 50.7167 66.0167 42.6417 66.0167 34C66.0167 25.5 62.6167 17.425 56.6667 11.3333C50.7167 5.24167 42.5 1.98333 34 1.98333Z" fill="#FFCE00"/>
<path fill-rule="evenodd" clip-rule="evenodd" d="M44 27.5846V55.9049C44 57.9809 41.9423 59.4293 39.988 58.7291L24.988 53.3541C23.7956 52.9268 23 51.7966 23 50.5299V14.2618C23 12.1859 25.0577 10.7374 27.012 11.4377L35.409 14.4466C35.5973 13.7987 35.8472 13.177 36.1521 12.5883L27.6867 9.55489C24.4296 8.38776 21 10.8019 21 14.2618V50.5299C21 52.641 22.326 54.5247 24.3134 55.2368L39.3133 60.6118C42.5704 61.779 46 59.3648 46 55.9049V27.6489C45.7801 27.6629 45.5584 27.67 45.335 27.67C44.8826 27.67 44.437 27.6409 44 27.5846Z" fill="#FFD200"/>
<path fill-rule="evenodd" clip-rule="evenodd" d="M35.0464 16.349C35.0157 16.6735 35 17.0024 35 17.335C35 21.9683 38.049 25.8896 42.25 27.2017V54.9979C42.25 56.3802 40.8811 57.3458 39.5789 56.8819L26.7434 52.31C25.5482 51.8843 24.75 50.7527 24.75 49.4839V15.2601C24.75 13.8525 26.1653 12.8854 27.4767 13.3968L35.0464 16.349ZM34.5 49.85C34.5 50.8717 33.7165 51.7 32.75 51.7C31.7835 51.7 31 50.8717 31 49.85C31 48.8283 31.7835 48 32.75 48C33.7165 48 34.5 48.8283 34.5 49.85Z" fill="#FFD200"/>
<path fill-rule="evenodd" clip-rule="evenodd" d="M53.6309 17.3359C53.6309 12.7119 49.8231 9.03992 45.3354 9.03992C40.7117 9.03992 37.0399 12.7119 37.0399 17.3359C37.0399 21.9599 40.8476 25.6319 45.3354 25.6319C49.9591 25.6319 53.6309 21.8239 53.6309 17.3359ZM43.8394 21.8239L39.8957 18.016L41.3916 16.656L43.8394 18.968L49.2791 13.528L50.639 15.024L43.8394 21.8239Z" fill="#FFCE00"/>
</svg>
