<svg width="68" height="68" viewBox="0 0 68 68" fill="none" xmlns="http://www.w3.org/2000/svg">
<path d="M34 68C15.3 68 0 52.7 0 34C0 24.9333 3.54167 16.4333 9.91667 9.91667C16.2917 3.54167 24.9333 0 34 0C43.0667 0 51.5667 3.54167 58.0833 9.91667C64.6 16.2917 68 24.9333 68 34C68 43.0667 64.4583 51.5667 58.0833 58.0833C51.5667 64.4583 43.0667 68 34 68ZM34 1.98333C25.5 1.98333 17.425 5.24167 11.3333 11.3333C5.24167 17.425 1.98333 25.5 1.98333 34C1.98333 51.7083 16.2917 66.0167 34 66.0167C42.5 66.0167 50.575 62.6167 56.6667 56.6667C62.7583 50.7167 66.0167 42.6417 66.0167 34C66.0167 25.5 62.6167 17.425 56.6667 11.3333C50.7167 5.24167 42.5 1.98333 34 1.98333Z" fill="#FFCE00"/>
<mask id="mask0" mask-type="alpha" maskUnits="userSpaceOnUse" x="0" y="0" width="68" height="68">
<circle cx="34" cy="34" r="34" fill="#C4C4C4"/>
</mask>
<g mask="url(#mask0)">
<path d="M34.5715 29.1968C36.6912 29.1968 38.8109 29.9034 40.224 31.552C43.2858 34.6138 43.2858 39.7953 40.224 43.0926L17.3784 66.1737L5.83787 54.6331L28.919 31.552C30.5676 30.1389 32.4518 29.1968 34.5715 29.1968ZM34.5715 27.3126C31.7453 27.3126 29.39 28.2547 27.2703 30.3744L4.42474 53.22L3.01161 54.6331L4.42474 56.0463L15.9653 67.5868L17.3784 69L18.7916 67.5868L41.8727 44.5057C45.8766 40.5018 45.8766 34.1427 41.8727 30.1389C39.753 28.2547 37.3978 27.3126 34.5715 27.3126Z" fill="#FFCD00"/>
<path d="M44.4693 27.3129C38.8168 21.6604 29.867 21.6604 24.45 27.3129" stroke="#FFCD00" stroke-width="2.08578" stroke-miterlimit="10"/>
<path d="M24.4441 27.3126L-9.00001 60.7567" stroke="#FFCD00" stroke-width="2.08578" stroke-miterlimit="10"/>
<path fill-rule="evenodd" clip-rule="evenodd" d="M4.42476 54.6332L28.2124 30.8455C29.8611 29.1968 32.2163 28.2548 34.5715 28.2548C36.9267 28.2548 39.282 29.1968 40.9306 30.8455C44.4634 34.3783 44.4634 40.2664 40.9306 43.7992L17.3785 67.5869L4.42476 54.6332ZM38.5754 35.3206L35.2781 32.0233C34.807 31.5523 34.336 31.5523 33.8649 32.0233L30.5676 35.3206H38.5754ZM35.2781 38.1469L38.5754 41.4442H30.5676L33.8649 38.1469C34.336 37.6758 34.807 37.6758 35.2781 38.1469Z" fill="#FFCD00"/>
<path d="M38.5754 14.1234L35.2781 17.4207C34.807 17.8918 34.336 17.8918 33.8649 17.4207L30.5676 14.1234H38.5754Z" fill="#FFCD00"/>
<path d="M38.5754 8L35.2781 11.2973C34.807 11.7683 34.336 11.7683 33.8649 11.2973L30.5676 8H38.5754V8Z" fill="#FFCD00"/>
</g>
</svg>
